<svg width="141" height="72" viewBox="0 0 141 72" fill="none" xmlns="http://www.w3.org/2000/svg"><path d="M35.58 17.654c.228.05.228.05.46.103 3.08.788 5.864 2.783 8.09 4.99l.414.404c2.572 2.677 3.899 6.03 4.647 9.61l.104.415c.716 4.673-.587 9.764-3.344 13.566-3.227 4.302-7.288 6.612-12.474 7.74-.69.08-1.39.06-2.085.06v-7.026l1.604-.9.5-.288.401-.22c.202-.112.202-.112.407-.228.544-.163.78-.028 1.276.23.4.24.783.485 1.167.747l.307.197c.7.476.96.865 1.144 1.691.8.202.8.202 1.56-.01.264-.486.242-.851.185-1.395-.34-.42-.34-.42-.96-.384-.584-.01-.584-.01-.96.208-.43-.24-.834-.486-1.243-.757l-.348-.222c-.291-.19-.572-.395-.852-.602v-.351c1.547-1.12 3.275-1.172 5.115-1.372l.97-.115c.59-.07 1.18-.138 1.77-.203l.357-.04c.345-.027.691-.027 1.037-.027l.25.264c.264.305.264.305.71.33.436-.036.436-.036.752-.275.281-.433.283-.69.207-1.197-.178-.34-.178-.34-.523-.527-.524-.117-.524-.117-1.047 0l-.221.43c-.303.448-.303.448-.831.613l-.645.075-.349.043c-.368.045-.737.084-1.106.124-.244.03-.487.059-.73.09-1.268.151-2.52.253-3.796.206.736-1.801.736-1.801 1.492-2.12.47-.076.47-.076.92-.103l.38-.06c.427-.645.492-1.184.349-1.933-.474-.577-.759-.686-1.494-.79-.597.046-.597.046-1.026.351-.376.606-.35 1.157-.272 1.844l.118.425c.097.787-.306 1.27-.727 1.906-.9.987-2.158 1.467-3.405 1.885.129-.551.273-1.072.524-1.58.534-.253.534-.253 1.047-.352l.349-.351c-.016-.62-.016-.62-.175-1.23-.493-.41-.493-.41-1.058-.307-.53.09-.53.09-.861.483-.032.49-.051.906.11 1.373.144.867-.39 1.758-.808 2.491-.46.425-.927.703-1.57.703v-5.797c.745-.4 1.49-.798 2.24-1.188a64.598 64.598 0 002.028-1.108c.45-.254.904-.5 1.359-.746.223-.122.444-.248.663-.376 1.113-.65 2.054-1.11 3.361-.82.574.159 1.13.35 1.69.55.275.075.55.148.828.215l.623.169.642.172c.352.098.702.205 1.049.322l.141.351c.189.405.189.405.71.527.553.052.553.052.96-.285.333-.492.387-.712.283-1.296-.178-.34-.178-.34-.524-.527-.523-.088-.523-.088-1.047 0l-.244.273c-.28.254-.28.254-.646.26-1.532-.325-3.024-.773-4.52-1.236.43-.344.71-.53 1.244-.691l.502-.187.133-.327c.327-.569.782-.69 1.372-.946l.628-.278.484-.206.397.353c.462.415.462.415 1.108.34.693-.174.693-.174 1.113-.693.158-.625.249-1.039.01-1.646-.542-.43-1.07-.518-1.755-.461-.556.316-.815.511-1.004 1.13-.354.731-1.067 1.01-1.788 1.329h-.35c.22-1.31.47-2.662 1.048-3.865.567-.395.567-.395 1.047-.527.029-.6.029-.6 0-1.23-.33-.406-.33-.406-.873-.394-.543-.012-.543-.012-.872.395-.032.493-.043.915.102 1.39.09.459.006.722-.14 1.165l-.145.45-.155.464-.154.473c-.125.384-.252.768-.38 1.152-.41-.411-.418-.568-.48-1.13l-.053-.417c.009-.385.009-.385.358-.912.087-.527.087-.527 0-1.054-.37-.413-.6-.513-1.146-.593-.425.037-.425.037-.741.263-.304.483-.277.825-.207 1.384.323.45.512.523 1.047.702.153.477.275.93.381 1.417l.094.403c.076.33.15.66.223.99l-8.376 4.217a6.54 6.54 0 01.698-1.406c.287-.126.578-.244.872-.351.243-.206.243-.206.218-.78l-.043-.625c-.493-.408-.493-.408-1.058-.319-.565.097-.565.097-.862.67l.131.615c.144.908-.254 1.521-.683 2.298-.355.47-.668.694-1.193.952h-.349c-.454-5.78-.454-5.78.565-7.053.617-.584 1.3-.998 2.053-1.379l.523-.351a4.248 4.248 0 011.57 0c.242.285.475.578.699.878.625.117.625.117 1.221 0 .376-.568.431-.747.35-1.405-.179-.34-.179-.34-.524-.527-.524-.088-.524-.088-1.047 0-.178.172-.353.347-.524.527-.469.033-.469.033-.872 0v-.352c.278-.248.568-.483.861-.713a20.6 20.6 0 001.876-1.68l.385-.391c.24-.246.478-.494.714-.744.773-.762 1.324-1.002 2.41-1.026.416.005.416.005.908-.188.116-.532.194-1.036.175-1.581-.317-.568-.317-.568-.873-.879-.667-.07-1.11-.037-1.745.176-.01.104-.02.208-.032.315l-.044.42-.043.414-.055.432-.04.44c-.188.611-.527.87-1.007 1.284l-.48.42c-.393.315-.393.315-.567.315-.026-.684-.041-1.368-.055-2.053l-.022-.587c-.022-1.455-.022-1.455.517-2.114l.432-.34c.018-.566.018-.566-.174-1.054-.489-.246-.856-.22-1.396-.175-.36.172-.36.172-.524.526.04.641.067.946.524 1.406.232 1.49.48 3.697-.162 5.095-.465.582-1.113.887-1.758 1.228-.298.255-.59.519-.872.79-2.589 2.372-2.589 2.372-2.967 2.372-.147-1.418.134-2.226.971-3.36l.272-.407c.264-.37.505-.682.851-.976.655-.076.655-.076 1.222 0 .482-.178.642-.239.872-.702.084-.91.084-.91-.185-1.746-.532-.293-.955-.352-1.56-.362-.549.184-.549.184-.872.703-.004.41-.004.41.043.867.078 1.377-.746 2.357-1.614 3.348h-.349a2495.005 2495.005 0 01.287-4.776l.105-1.742.032-.548.032-.511.027-.45c.102-1.006.102-1.006.499-1.36l.24-.274c-.042-.583-.042-.583-.35-1.054-.523-.029-.523-.029-1.046 0-.233.195-.233.195-.207.692-.026.557-.026.557.381.89.03.424.03.424.009.961l-.022.604-.03.652c-.01.218-.018.437-.027.662-.092 2.09-.256 4.172-.453 6.254l-.524-.175c-.17-.471-.31-.922-.436-1.405l-.226-.82-.108-.399a22.383 22.383 0 00-.418-1.307c-.208-.636-.208-.636-.208-1.163l.35-.308c.404-.385.404-.385.436-1.01-.046-.61-.046-.61-.35-1.043-.644-.405-1.077-.334-1.832-.274l-.523.175c-.04.249-.075.498-.11.747l-.06.42c-.006.508.034.713.344 1.117l.605.23c.617.297.617.297.89.846.063.225.12.452.174.68l.204.763.106.405c.118.423.256.834.402 1.249.617 1.771.911 3.254.76 5.137-.89-.282-1.55-.83-2.279-1.394l-.374-.287a74.78 74.78 0 01-.706-.548c-.317-.248-.317-.248-.735-.485-.436-.443-.367-.874-.366-1.48.027-1.166.027-1.166.534-1.779l.436-.35c.146-.528.146-.528 0-1.055-.338-.53-.338-.53-.872-.878-.69-.11-1.049-.107-1.647.263-.382.616-.418 1.137-.273 1.845.386.521.609.672 1.222.878v1.757c-.812-.398-1.098-.825-1.498-1.63a74.198 74.198 0 01-.494-1c-.168-.345-.34-.688-.513-1.031a267.508 267.508 0 01-.62-1.262c-.194-.532-.233-.715-.016-1.225l.174-.352c.088-.6.088-.6 0-1.23-.337-.47-.337-.47-.872-.702-.61.01-1.03.064-1.56.373-.299.531-.247.963-.185 1.56.17.432.17.432.523.702l.505.04c.542.136.542.136.886.583l.293.589.16.314c.11.22.22.44.326.66.164.338.333.674.503 1.009.817 1.632.817 1.632.817 2.25-.363.02-.726.033-1.09.044l-.614.025c-.676-.082-.823-.271-1.262-.771-.538-.088-.538-.088-1.047 0-.386.314-.386.314-.383.731l.012.432.01.436.012.333.654.132.368.074c.408.01.408.01.692-.371.596-.567 1.184-.483 1.973-.483 1.18.049 1.925.567 2.77 1.35-.52.349-.785.483-1.397.528l-.327-.253c-.546-.404-.932-.357-1.592-.274-.454.237-.454.237-.698.702a3.028 3.028 0 000 1.405c.333.483.333.483.872.703.606-.01 1.026-.047 1.538-.384.242-.335.242-.335.35-.856.206-.516.206-.516.675-.769.788-.135 1.443-.133 2.152.284.372.268.73.547 1.087.836l.734.576.323.258c.264.206.541.395.82.582.046.449.06.854.05 1.303l-.002.388c-.003.41-.01.82-.016 1.23l-.007.832a277.89 277.89 0 01-.026 2.044c-1.397-.401-2.77-.869-4.14-1.354l-.733-.256a2816.266 2816.266 0 01-1.713-.6c-1.244-.546-2.04-1.516-2.662-2.709a6.678 6.678 0 01-.128-1.4c-.015-.117-.03-.235-.047-.356-.564-.379-.741-.434-1.396-.352-.352.165-.352.165-.523.528 0 .628 0 .628.174 1.23.49.376.49.376 1.015.45.831.377 1.156 1.057 1.603 1.833-2.14-.662-3.335-1.825-4.769-3.526-.19-.221-.389-.437-.594-.645-.673-.7-.861-1.188-.866-2.167l-.053-.337c-.564-.379-.742-.434-1.396-.352-.352.165-.352.165-.524.527.01.764.01.764.35 1.406l.561.037c.797.167 1.124.508 1.62 1.115l.248.288c.163.191.325.383.486.576.303.36.62.708.934 1.058.372.416.63.807.862 1.317a264.12 264.12 0 01-1.806.275c-1.524.184-1.524.184-2.207-.275-.758.016-.758.016-1.396.351-.044.608-.044.608 0 1.23.338.413.338.413.948.428l.622-.077.235-.43c.288-.448.288-.448.768-.61a48.53 48.53 0 011.789-.19l.515-.044c1.185-.053 2.088.228 3.15.747l-.175.352a5.464 5.464 0 01-1.57.175c-.393-.252-.393-.252-.698-.527-.503-.074-.756-.073-1.19.198-.3.478-.264.83-.206 1.383l.349.527c.385.064.385.064.806.033l.433-.014.331-.019.065-.406c.4-.665.837-.726 1.565-.91 1.171-.224 2.017-.098 3.081.438-.304.52-.612.988-1.047 1.405-.49.102-.889.042-1.396 0-.386.155-.386.155-.523.527.04.64.04.64.174 1.23.793.206.793.206 1.538-.011.233-.345.233-.345.327-.813a4.096 4.096 0 011.625-1.987c.753.078 1.43.287 2.142.539l.55.193.69.245 2.202.78v6.675c-1.57-.351-1.57-.351-1.92-.878-.19-.58-.32-1.147-.348-1.757.327-.373.327-.373.698-.703.1-.507.058-.878 0-1.405-.27-.382-.46-.495-.873-.703-.618-.067-.935-.073-1.461.275-.397.6-.394.95-.284 1.658.444.555.724.828 1.396 1.054l.35 1.756a16007.487 16007.487 0 01-1.806-.498c-.615-.197-1.141-.38-1.685-.731-.166-.43-.166-.43-.218-.9a12.475 12.475 0 00-.13-.857c-.56-.281-1.14-.261-1.746-.176-.458.257-.458.257-.698.703-.133.699-.054.968.328 1.57.615.409.731.39 1.428.296l.443-.092c.54-.023.726.152 1.117.51-.716.32-1.438.489-2.203.636l-.353.072c-.495.097-.952.17-1.458.17l-.229-.264c-.295-.313-.295-.313-.818-.34-.526.032-.526.032-.861.351-.26.598-.143 1.032-.011 1.658.247.024.494.04.742.055l.417.03c.453-.043.453-.043.682-.496.683-.747 1.545-.793 2.51-.972l.574-.12c.867-.171 1.536-.302 2.404-.078-.209.265-.209.265-.524.527-.402.02-.402.02-.85-.022-.688-.02-.846-.011-1.44.395-.383.592-.43.866-.327 1.56.21.586.335.693.872 1.053.7.038 1.358-.02 1.93-.439.174-.464.171-.74.154-1.23-.017-.569-.015-.746.283-1.251.64-.364.93-.254 1.647-.066l2.268.878v5.446c-4.106 0-8.034-1.573-11.168-4.216l-.267-.224c-3.704-3.149-6.085-7.735-6.538-12.599-.207-4.933.982-9.703 4.188-13.526l.393-.47c4.758-5.488 11.96-7.632 18.976-5.853zm52.175 9.485h9.772v4.04h-5.06v2.635h4.362v3.688h-4.537v2.811h5.235v3.864h-9.772V27.14zm30.522.286c1.885-1.083 4.889-.708 6.647.418 1.703 1.265 2.504 3.229 2.884 5.273.398 2.944.3 6.454-1.503 8.926-.73.854-1.412 1.489-2.428 1.96l-.367.19c-.736.236-1.439.227-2.208.228l-.452.014c-1.596.007-2.817-.564-3.979-1.652-2.122-2.365-2.414-5.482-2.278-8.53.173-2.212.91-4.408 2.533-5.96.267-.215.539-.424.817-.625l.334-.242zm2.982 3.468c-.524.11-.524.11-.993.45-.837 1.116-.992 2.296-.998 3.67l.006.547c-.015 1.364.058 2.602.589 3.874.445.606.664.835 1.396.989.523-.11.524-.11.993-.44.866-1.178.993-2.518.998-3.952l-.006-.57c.014-1.317-.023-2.379-.589-3.58-.447-.583-.677-.837-1.396-.988zm-52.874-3.754c.169.507.233.933.289 1.463l.061.583.065.63.069.652.179 1.723.18 1.723c.448 4.284.448 4.285.554 6.4l.512.164c.534.187.534.187.709.363.017.335.023.67.023 1.006l.001.627-.002.662.002.647v.632l-.002.576c-.025.669-.114 1.334-.196 1.998h-3.142v-2.81h-9.946v2.81h-3.14c-.048-.952-.093-1.905-.13-2.858a28.007 28.007 0 00-.112-1.716c-.1-1.354-.1-1.354.38-1.988.275-.262.556-.518.842-.767 2.604-2.506 2.74-7.681 3.133-11.058.063-.49.152-.978.249-1.462h9.422zm-5.584 3.864c-.174.527-.174.527-.21.908-.138 2.175-.605 4.255-1.36 6.294l-1.047 2.283h5.06c0-.813.015-1.63-.076-2.44-.134-1.116-.134-1.116-.219-2.238-.123-1.617-.251-3.216-.577-4.807h-1.57zm10.471-3.159c3.227-1.392 7.7-1.598 10.655.567 1.043.957 1.652 2.15 1.771 3.566.057 1.616-.25 3.06-1.284 4.33-1.898 1.87-4.027 1.9-6.605 1.9v5.973h-4.537V27.844zm4.537 6.85h1.919c.73-.369.991-.531 1.396-1.23.114-.864.157-1.718-.348-2.46-.873-.526-.873-.527-2.967-.527v4.216zm28.579-7.779c1.794.008 3.577.363 4.946 1.617 1.013 1.124 1.278 2.015 1.241 3.527-.097 1.255-.449 1.876-1.383 2.721-.248.208-.499.414-.753.615l.276.182c1.069.748 1.753 1.552 2.168 2.805.13 1.538-.024 2.919-.971 4.172-1.074 1.156-2.697 1.731-4.241 1.834a51.82 51.82 0 01-1.714.01l-.61-.003c-1.774-.02-3.336-.176-5.028-.744v-15.81c1.864-.803 3.549-.91 5.551-.921l.518-.005zm-.063 10.335l-.389.024c-.427.02-.841.037-1.254.055v3.689c1.139.012 2.066.14 3.075-.44.45-.477.491-.623.567-1.25.056-.74-.047-.988-.514-1.579-.536-.442-.798-.514-1.485-.499zm-.651-6.993c-.574.01-.974-.105-1.013.562l.003.443.002.48.005.502c.003.582.006 1.164.011 1.745l.521.007.678.005c.414.004.829 0 1.243-.012.482-.242.72-.438 1.047-.878.12-.71.111-1.343-.196-1.998-.73-.636-1.346-.845-2.301-.856z" fill="#fff"/><path d="M24.936 48.746c.338.197.338.197.523.527-.039.64-.067.945-.523 1.405-.54.058-.903.08-1.385-.187-.299-.548-.152-.982-.011-1.57.488-.245.856-.22 1.396-.175zM22.94 31.398c.425.132.425.132.774.483.064.5.07.77-.207 1.197-.43.283-.684.284-1.189.208-.327-.197-.327-.197-.523-.527.022-.538.022-.538.174-1.054.524-.351.524-.351.971-.307zm2.072-6.223c.622.033.622.033.97.384.044.527.044.527 0 1.054-.348.351-.348.351-.86.406-.535-.055-.535-.055-.873-.252-.28-.497-.15-.848-.011-1.384.174-.175.174-.175.774-.208zM28 21.552c.426.143.426.143.775.494.054.527.054.527 0 1.054-.524.351-.524.351-1.08.285l-.49-.11c-.233-1.126-.233-1.126.021-1.58.327-.176.327-.176.774-.143zm11.245 17.664c.523.044.523.044.872.395.044.527.044.527 0 1.054-.349.351-.349.351-.872.395-.524-.044-.524-.044-.873-.395-.043-.527-.043-.527 0-1.054.35-.351.35-.351.873-.395zm6.98-7.685c.632.066.632.066 1.221.176.233.957.233.957-.022 1.383-.43.26-.705.262-1.2.198-.348-.351-.348-.351-.392-.878.044-.527.044-.527.393-.879zM27.106 42.894c.447.054.447.054.774.263.197.318.197.318.164.769-.142.428-.142.428-.49.779-.437.044-.437.044-.873 0-.35-.351-.35-.351-.393-.878.054-.655.158-.848.818-.933zm7.154-18.269c.448.055.448.055.775.264.196.318.196.318.164.768-.142.428-.142.428-.491.78-.436.043-.436.043-.873 0-.349-.352-.349-.352-.392-.879.054-.655.158-.848.818-.933zm7.079-1.745c.523.045.523.045.872.396.064.504.066.774-.207 1.208-.316.197-.316.197-.764.164-.425-.142-.425-.142-.774-.494-.043-.439-.043-.439 0-.878.35-.351.35-.351.873-.395zM22.766 44.387c.425.142.425.142.774.494-.058.579-.109.812-.524 1.23-.545-.066-.545-.066-1.047-.176-.231-.955-.231-.955.022-1.395.327-.186.327-.186.775-.153zM20.66 21.475c.437.043.437.043.786.395.054.527.054.527 0 1.054-.524.351-.524.351-.982.296-.414-.12-.414-.12-.588-.296-.033-.516-.033-.516 0-1.054.348-.352.348-.352.785-.395zM17.782 38.38c.292.051.583.11.872.176l-.174.879c-.339.099-.339.099-.698.175-.175-.175-.175-.175-.197-.614.022-.44.022-.44.197-.615zm23.208-8.957c.292.05.583.108.872.176l-.174.878-.524.175-.349-.175a17.615 17.615 0 010-.878l.175-.176zm-6.631 12.296l.872.175-.174.879-.873-.176.175-.878zm12.215-4.743l.872.175-.174.878-.873-.175.175-.878zM31.043 18.532l.873.176-.175.878-.872-.175.174-.879zM19.177 47.867h.873v.879c-.327.11-.327.11-.698.175l-.35-.351c.066-.373.066-.373.175-.703zm.175-14.228c.292.05.584.108.872.175v.703l-.872.176a15.344 15.344 0 01-.175-.879l.175-.175zm.174-4.744h.873v.879c-.327.11-.327.11-.698.175l-.35-.35c.066-.374.066-.374.175-.704zm17.45 1.055c.293.05.584.108.873.175l-.175.878-.698-.175c-.098-.34-.098-.34-.174-.703l.174-.176zm-23.033.702c.292.05.583.109.872.176l-.174.703h-.698c-.099-.34-.099-.34-.175-.703l.175-.176zM37.5 20.64l.698.351-.175.703-.872-.176c.152-.68.152-.68.349-.878zm1.221 26.699l.698.175v.879l-.872-.176.174-.878zM13.419 36.976l.872.175-.174.878-.698-.175v-.878zm20.765-1.756c.293.05.584.108.873.175l-.175.703h-.698c-.098-.34-.098-.34-.174-.703l.174-.175zm-8.201 12.47c-.186.274-.186.274-.524.527-.632-.033-.632-.033-1.221-.176l-.175-.351c.702-.148 1.225-.185 1.92 0zm19.369-5.093l.873.175-.175.703h-.698v-.878zm-1.396-14.579l.873.175-.175.703-.698-.176v-.702zm-22.51 12.999l.698.175-.174.703-.698-.176.174-.702z" fill="#fff"/></svg>