<?xml version="1.0" encoding="utf-8"?><svg viewBox="0 0 24 24" xmlns="http://www.w3.org/2000/svg" xmlns:xlink="http://www.w3.org/1999/xlink"><style>:root>svg{display:none}:root>svg:target{display:block}</style><svg fill="none" viewBox="0 0 24 24" id="down" xmlns="http://www.w3.org/2000/svg"><path fill-rule="evenodd" clip-rule="evenodd" d="M16.53 8.97a.75.75 0 010 1.06l-4 4a.75.75 0 01-1.06 0l-4-4a.75.75 0 111.06-1.06L12 12.44l3.47-3.47a.75.75 0 011.06 0z" fill="#72CA21"/></svg><svg fill="none" viewBox="0 0 18 18" id="search" xmlns="http://www.w3.org/2000/svg"><path fill-rule="evenodd" clip-rule="evenodd" d="M11.385 12.446a6.75 6.75 0 111.06-1.06l5.156 5.155a.75.75 0 01-1.06 1.06l-5.156-5.155zm-7.926-1.562a5.25 5.25 0 117.43-.005l-.005.005-.005.004a5.25 5.25 0 01-7.42-.004z" fill="#599D1A"/></svg></svg>