<svg width="82" height="82" viewBox="0 0 82 82" fill="none" xmlns="http://www.w3.org/2000/svg"><path d="M0 40C0 21.144 0 11.716 5.858 5.858 11.716 0 21.144 0 40 0h2c18.856 0 28.284 0 34.142 5.858C82 11.716 82 21.144 82 40v2c0 18.856 0 28.284-5.858 34.142C70.284 82 60.856 82 42 82h-2c-18.856 0-28.284 0-34.142-5.858C0 70.284 0 60.856 0 42v-2z" fill="#fff"/><path opacity=".2" d="M36.8 52.55l-7.35-7.35-3.232 8.908a1.296 1.296 0 001.673 1.674L36.8 52.55z" fill="#599D1A"/><path opacity=".2" d="M36.012 29.05a1.24 1.24 0 011.03.234l.116.103 15.455 15.455a1.239 1.239 0 01-.306 1.982l-.144.062-6.681 2.428-12.797-12.797 2.43-6.68a1.239 1.239 0 01.897-.787z" fill="#599D1A" stroke="#599D1A" stroke-width=".148"/><path d="M26.218 54.109l8.826-24.298a1.313 1.313 0 012.166-.476L52.665 44.79a1.312 1.312 0 01-.476 2.166l-24.298 8.826a1.296 1.296 0 01-1.673-1.673v0zm21.345-22.297s0-3.937 3.937-3.937c3.938 0 3.938-3.938 3.938-3.938M36.8 52.55l-7.35-7.35m14.175-22.575v3.938m11.813 11.812L58.063 41m-2.625-7.875l3.937-1.313M32.6 36.537L45.462 49.4" stroke="#599D1A" stroke-width="2.375" stroke-linecap="round" stroke-linejoin="round"/></svg>