<svg width="82" height="82" viewBox="0 0 82 82" fill="none" xmlns="http://www.w3.org/2000/svg"><path d="M0 40C0 21.144 0 11.716 5.858 5.858 11.716 0 21.144 0 40 0h2c18.856 0 28.284 0 34.142 5.858C82 11.716 82 21.144 82 40v2c0 18.856 0 28.284-5.858 34.142C70.284 82 60.856 82 42 82h-2c-18.856 0-28.284 0-34.142-5.858C0 70.284 0 60.856 0 42v-2z" fill="#20895F" fill-opacity=".2"/><path opacity=".2" d="M36.8 52.55l-7.35-7.35-3.232 8.909a1.296 1.296 0 001.673 1.673L36.8 52.55z" fill="#20895F"/><path opacity=".2" d="M36.476 29.037l.152.035c.15.045.29.116.413.212l.117.104 15.455 15.455c.11.11.2.24.262.383l.053.146c.044.15.06.307.046.462l-.023.154a1.24 1.24 0 01-.184.427l-.095.123a1.238 1.238 0 01-.365.286l-.144.063-6.681 2.428-12.797-12.797 2.43-6.681c.053-.147.134-.282.237-.398l.11-.11c.118-.104.254-.183.4-.235l.15-.043a1.24 1.24 0 01.464-.014z" fill="#20895F" stroke="#20895F" stroke-width=".148"/><path d="M26.218 54.11l8.827-24.299a1.312 1.312 0 012.165-.475L52.665 44.79a1.312 1.312 0 01-.476 2.166l-24.298 8.827a1.296 1.296 0 01-1.673-1.674v0zm21.345-22.297s0-3.938 3.937-3.938c3.938 0 3.938-3.938 3.938-3.938M36.8 52.55l-7.35-7.35m14.175-22.575v3.938m11.813 11.812L58.062 41m-2.624-7.875l3.937-1.313M32.6 36.537L45.462 49.4" stroke="#20895F" stroke-width="2.375" stroke-linecap="round" stroke-linejoin="round"/></svg>