<svg width="165" height="32" viewBox="0 0 165 32" fill="none" xmlns="http://www.w3.org/2000/svg"><path fill-rule="evenodd" clip-rule="evenodd" d="M39.42.246L29.36 7.558a3.077 3.077 0 01-3.49.088L22.103 5.19a3.077 3.077 0 00-3.485.086l-9.595 6.948a3.077 3.077 0 01-3.475.092l-4.255-2.75C.578 9.102 0 9.415 0 10.265v16.116c0 .85.578 1.913 1.292 2.376l4.255 2.75a3.077 3.077 0 003.475-.092l9.595-6.948a3.077 3.077 0 013.485-.085l3.769 2.457a3.077 3.077 0 003.49-.089l10.06-7.311c.688-.5 1.246-1.593 1.246-2.443v-.954c0-.85-.558-1.134-1.246-.634l-10.53 7.641c-.687.5-1.245.216-1.245-.634v-.377c0-.85.558-1.943 1.246-2.443l10.533-7.644c.686-.5 1.242-1.592 1.242-2.44V8.365c0-.85-.558-1.133-1.246-.634l-10.53 7.641c-.687.5-1.245.216-1.245-.634v-.377c0-.85.558-1.943 1.246-2.443l10.529-7.64c.688-.5 1.246-1.594 1.246-2.444V.881c0-.85-.558-1.134-1.246-.635zM20.33 17.794v-.693c-.064-.729-.595-.949-1.24-.48L8.563 24.26c-.688.5-1.246 1.594-1.246 2.443v.377c0 .85.558 1.134 1.246.634l10.529-7.64c.644-.469 1.175-1.459 1.24-2.28zm0-7.677v-.693c-.064-.729-.595-.949-1.24-.48l-10.528 7.64c-.688.5-1.246 1.594-1.246 2.443v.377c0 .85.558 1.134 1.246.634l10.529-7.64c.644-.469 1.175-1.459 1.24-2.28z" fill="#72CA21"/><path d="M61.83 17.132l-2.067-5.99h-1.428l-2.08 6.073-1.803-6.074H52.4l2.94 9.707h1.511l2.08-5.963 2.08 5.963h1.622l2.94-9.707h-1.941l-1.803 5.99z" fill="#333"/><path fill-rule="evenodd" clip-rule="evenodd" d="M66.376 15.024c-.629.62-.943 1.516-.943 2.69 0 1.073.31 1.9.929 2.482.629.573 1.465.86 2.51.86.397 0 .79-.065 1.178-.194.389-.13.68-.254.874-.374.203-.12.453-.287.749-.5l-.513-.998c-.75.462-1.382.693-1.9.693-1.322 0-1.997-.647-2.025-1.941h4.438c0-2.44-.999-3.66-2.995-3.66a3.16 3.16 0 00-2.302.942zm.943 1.692c.24-.943.72-1.415 1.442-1.415.804 0 1.234.472 1.29 1.415h-2.732z" fill="#333"/><path d="M74.72 20.848v-9.707h-1.83v9.707h1.83zm3.494 0v-9.707h-1.83v9.707h1.83zm6.738-.957c.176-.305.264-.66.264-1.067 0-.444-.13-.814-.389-1.11a2.159 2.159 0 00-.929-.665c-.37-.14-.74-.255-1.109-.347a5.43 5.43 0 01-.93-.319c-.249-.12-.373-.273-.373-.458 0-.37.25-.554.748-.554.703 0 1.489.157 2.358.471l.402-1.276a6.885 6.885 0 00-2.552-.499c-.832 0-1.479.199-1.941.597a1.893 1.893 0 00-.693 1.497c0 .462.124.846.374 1.151.25.296.55.508.901.638.36.12.722.226 1.082.319.36.083.666.19.915.319.25.13.375.3.375.513 0 .471-.38.707-1.138.707-.674 0-1.405-.259-2.19-.776l-.597 1.123c.86.6 1.83.901 2.912.901.324 0 .638-.042.943-.125.315-.074.61-.19.888-.346.286-.167.513-.398.68-.694z" fill="#333"/><path fill-rule="evenodd" clip-rule="evenodd" d="M93.334 17.576c0-1.091-.333-1.947-.998-2.566-.666-.62-1.526-.929-2.58-.929-1.063 0-1.927.31-2.593.93-.665.61-.998 1.46-.998 2.55 0 1.091.333 1.947.998 2.566.666.62 1.53.929 2.594.929 1.053 0 1.913-.305 2.579-.915.665-.62.998-1.475.998-2.565zm-1.844 0c0 .711-.153 1.261-.458 1.65-.305.388-.73.582-1.275.582-.555 0-.985-.194-1.29-.582-.305-.398-.458-.953-.458-1.664 0-.712.153-1.262.458-1.65.305-.389.735-.583 1.29-.583.545 0 .97.199 1.275.596.305.389.458.939.458 1.65z" fill="#333"/><path d="M94.97 20.848h1.845v-5.255h3.182v3.355c0 1.35.587 2.025 1.761 2.025.574 0 1.276-.227 2.108-.68l-.416-1.081c-.481.194-.832.291-1.054.291-.369 0-.554-.259-.554-.777v-3.133h1.955v-1.29h-1.955v-1.83h-.361l-1.623 1.83h-3.043v-1.359c0-.471.19-.707.568-.707.296 0 .777.11 1.442.333l.43-1.276c-.813-.24-1.576-.36-2.288-.36-.582 0-1.063.157-1.442.47-.37.315-.555.856-.555 1.623v1.276h-.873v1.29h.874v5.255zm19.424-4.202v-1.58h-3.286v-2.358h3.591v-1.567h-5.644v9.707h5.797v-1.567h-3.744v-2.635h3.286zm3.754 4.202v-9.707h-1.83v9.707h1.83z" fill="#333"/><path fill-rule="evenodd" clip-rule="evenodd" d="M122.682 14.081a3.16 3.16 0 00-2.302.943c-.629.62-.943 1.516-.943 2.69 0 1.073.31 1.9.929 2.482.629.573 1.465.86 2.51.86.397 0 .79-.065 1.179-.194.388-.13.679-.254.873-.374.203-.12.453-.287.749-.5l-.513-.998c-.749.462-1.382.693-1.9.693-1.322 0-1.997-.647-2.024-1.941h4.437c0-2.44-.998-3.66-2.995-3.66zm-1.359 2.635c.24-.943.721-1.415 1.442-1.415.804 0 1.234.472 1.29 1.415h-2.732z" fill="#333"/><path d="M133.009 20.848v-4.451a1.77 1.77 0 01.554-.513c.259-.167.495-.25.708-.25.351 0 .633.102.846.305.212.204.318.596.318 1.179v3.73h1.845v-3.91c0-.888-.213-1.586-.638-2.094-.425-.509-1.031-.763-1.817-.763-.748 0-1.497.375-2.246 1.123-.49-.748-1.165-1.123-2.025-1.123-.286 0-.573.074-.859.222-.278.148-.486.291-.624.43-.139.13-.255.254-.347.374v-.804h-1.83v6.545h1.83v-4.41c.129-.24.305-.434.527-.582a1.34 1.34 0 01.735-.222c.36 0 .647.102.86.305.212.204.319.596.319 1.179v3.73h1.844z" fill="#333"/><path fill-rule="evenodd" clip-rule="evenodd" d="M141.708 14.081a3.16 3.16 0 00-2.302.943c-.629.62-.943 1.516-.943 2.69 0 1.073.31 1.9.929 2.482.629.573 1.465.86 2.51.86.397 0 .79-.065 1.179-.194.388-.13.679-.254.873-.374.204-.12.453-.287.749-.5l-.513-.998c-.749.462-1.382.693-1.9.693-1.322 0-1.997-.647-2.024-1.941h4.437c0-2.44-.998-3.66-2.995-3.66zm-1.359 2.635c.24-.943.721-1.415 1.442-1.415.804 0 1.234.472 1.29 1.415h-2.732z" fill="#333"/><path d="M147.75 15.093v-.79h-1.83v6.545h1.83v-4.507c.176-.194.425-.36.749-.499.323-.148.61-.222.86-.222.905 0 1.358.546 1.358 1.637v3.591h1.831v-3.813c0-.934-.24-1.655-.721-2.164-.481-.508-1.114-.762-1.9-.762-.795 0-1.521.328-2.177.984zm10.743 5.2l-.416-1.081c-.481.194-.832.291-1.054.291-.369 0-.554-.259-.554-.777v-3.133h1.955v-1.29h-1.955v-1.83h-.361l-2.607 2.94v.18h1.123v3.355c0 1.35.587 2.025 1.761 2.025.574 0 1.276-.227 2.108-.68zm6.016-.402c.176-.305.264-.66.264-1.067 0-.444-.13-.814-.388-1.11a2.166 2.166 0 00-.929-.665c-.37-.14-.74-.255-1.11-.347a5.447 5.447 0 01-.929-.319c-.249-.12-.374-.273-.374-.458 0-.37.249-.554.749-.554.702 0 1.488.157 2.357.471l.402-1.276a6.884 6.884 0 00-2.551-.499c-.832 0-1.48.199-1.942.597a1.893 1.893 0 00-.693 1.497c0 .462.125.846.374 1.151.25.296.55.508.902.638.36.12.721.226 1.081.319.361.083.666.19.915.319.25.13.375.3.375.513 0 .471-.379.707-1.137.707-.675 0-1.405-.259-2.191-.776l-.596 1.123c.859.6 1.83.901 2.912.901.323 0 .637-.042.942-.125.315-.074.611-.19.888-.346.286-.167.513-.398.679-.694z" fill="#333"/></svg>