<svg width="248" height="48" viewBox="0 0 248 48" fill="none" xmlns="http://www.w3.org/2000/svg"><path fill-rule="evenodd" clip-rule="evenodd" d="M59.551.37l-15.09 10.967a4.615 4.615 0 01-5.235.133l-5.653-3.686a4.615 4.615 0 00-5.228.128L13.953 18.334a4.615 4.615 0 01-5.213.138l-6.382-4.125c-1.07-.694-1.938-.224-1.938 1.05v24.174c0 1.274.868 2.87 1.938 3.565L8.74 47.26a4.616 4.616 0 005.213-.138L28.345 36.7a4.615 4.615 0 015.228-.128l5.653 3.685a4.615 4.615 0 005.234-.133l15.091-10.967c1.032-.75 1.87-2.39 1.87-3.664v-1.43c0-1.275-.837-1.701-1.87-.952L43.758 34.574c-1.032.749-1.869.323-1.869-.951v-.566c0-1.274.837-2.915 1.869-3.664l15.8-11.466c1.029-.752 1.862-2.388 1.862-3.66v-1.72c0-1.274-.837-1.7-1.869-.95L43.758 23.058c-1.032.75-1.869.324-1.869-.95v-.566c0-1.275.837-2.915 1.869-3.664L59.551 6.416c1.032-.75 1.87-2.39 1.87-3.664V1.32c0-1.275-.837-1.7-1.87-.951zM30.915 26.692v-1.04c-.096-1.094-.892-1.424-1.859-.722L13.263 36.392c-1.032.75-1.87 2.39-1.87 3.664v.566c0 1.274.838 1.7 1.87.951l15.793-11.462c.967-.702 1.763-2.187 1.86-3.42zm0-11.516v-1.04c-.096-1.093-.892-1.423-1.859-.721L13.263 24.877c-1.032.749-1.87 2.39-1.87 3.664v.565c0 1.275.838 1.7 1.87.952l15.793-11.462c.967-.702 1.763-2.187 1.86-3.42z" fill="#fff"/><path d="M93.164 25.698l-3.099-8.986h-2.142l-3.12 9.11-2.704-9.11H79.02l4.41 14.56h2.267l3.12-8.944 3.12 8.944h2.434l4.41-14.56h-2.913l-2.704 8.986z" fill="#fff"/><path fill-rule="evenodd" clip-rule="evenodd" d="M99.984 22.536c-.943.93-1.414 2.274-1.414 4.035 0 1.609.464 2.85 1.393 3.723.943.86 2.198 1.29 3.765 1.29a5.56 5.56 0 001.768-.291c.582-.194 1.019-.381 1.31-.562.305-.18.68-.43 1.124-.749l-.77-1.497c-1.123.693-2.073 1.04-2.85 1.04-1.983 0-2.995-.97-3.036-2.912h6.656c0-3.661-1.498-5.491-4.493-5.491-1.345 0-2.496.471-3.453 1.414zm1.414 2.538c.361-1.415 1.082-2.122 2.164-2.122 1.206 0 1.851.707 1.934 2.122h-4.098z" fill="#fff"/><path d="M112.5 31.272v-14.56h-2.745v14.56h2.745zm5.241 0v-14.56h-2.746v14.56h2.746zm10.108-1.435c.263-.458.395-.992.395-1.602 0-.665-.194-1.22-.583-1.664a3.233 3.233 0 00-1.393-.998 15.327 15.327 0 00-1.664-.52 8.136 8.136 0 01-1.394-.479c-.374-.18-.561-.409-.561-.686 0-.555.374-.832 1.123-.832 1.054 0 2.232.236 3.536.707l.603-1.913a10.33 10.33 0 00-3.827-.75c-1.248 0-2.219.299-2.912.895-.693.596-1.04 1.345-1.04 2.247 0 .693.187 1.268.561 1.726.375.444.826.763 1.352.957.541.18 1.082.34 1.623.478.541.125.998.285 1.373.479.374.194.561.45.561.77 0 .706-.568 1.06-1.705 1.06-1.013 0-2.108-.388-3.287-1.165l-.894 1.685c1.289.901 2.745 1.352 4.368 1.352.485 0 .957-.062 1.414-.187a5 5 0 001.331-.52c.43-.25.77-.596 1.02-1.04z" fill="#fff"/><path fill-rule="evenodd" clip-rule="evenodd" d="M140.422 26.363c0-1.636-.5-2.919-1.498-3.848-.998-.929-2.288-1.393-3.869-1.393-1.594 0-2.891.464-3.889 1.393-.999.915-1.498 2.191-1.498 3.827 0 1.637.499 2.92 1.498 3.848.998.93 2.295 1.394 3.889 1.394 1.581 0 2.871-.458 3.869-1.373.998-.929 1.498-2.211 1.498-3.848zm-2.767 0c0 1.068-.229 1.893-.686 2.475-.458.583-1.096.874-1.914.874-.832 0-1.477-.291-1.934-.874-.458-.596-.687-1.428-.687-2.496 0-1.067.229-1.892.687-2.475.457-.582 1.102-.873 1.934-.873.818 0 1.456.298 1.914.894.457.582.686 1.407.686 2.475z" fill="#fff"/><path d="M142.876 31.272h2.767v-7.883h1.665v.001h3.109v5.032c0 2.025.88 3.037 2.641 3.037.86 0 1.914-.34 3.162-1.019l-.624-1.622c-.721.29-1.248.436-1.581.436-.555 0-.832-.388-.832-1.164v-4.7h2.925v-.001h.008v-1.935h-2.933v-2.745h-.541l-2.434 2.745h-4.565v-2.038c0-.707.284-1.06.852-1.06.444 0 1.165.166 2.164.498l.644-1.913c-1.22-.36-2.364-.541-3.432-.541-.873 0-1.594.236-2.163.707-.554.472-.832 1.283-.832 2.434v1.913h-1.31v1.935h1.31v7.883zm29.136-6.302v-2.372h-4.93v-3.536h5.387v-2.35h-8.465v14.56h8.694v-2.35h-5.616V24.97h4.93zm5.63 6.302v-14.56h-2.745v14.56h2.745z" fill="#fff"/><path fill-rule="evenodd" clip-rule="evenodd" d="M184.443 21.122c-1.345 0-2.496.471-3.453 1.414-.943.93-1.414 2.274-1.414 4.035 0 1.609.464 2.85 1.394 3.723.942.86 2.197 1.29 3.764 1.29.597 0 1.186-.097 1.768-.291.583-.194 1.02-.381 1.311-.562.305-.18.679-.43 1.123-.749l-.77-1.497c-1.123.693-2.073 1.04-2.849 1.04-1.983 0-2.995-.97-3.037-2.912h6.656c0-3.661-1.498-5.491-4.493-5.491zm-2.038 3.952c.36-1.415 1.081-2.122 2.163-2.122 1.206 0 1.851.707 1.934 2.122h-4.097z" fill="#fff"/><path d="M199.934 31.272v-6.677c.18-.277.457-.534.832-.77.388-.249.742-.374 1.061-.374.527 0 .949.153 1.268.458.319.305.479.894.479 1.768v5.595h2.766v-5.866c0-1.33-.319-2.378-.957-3.14-.637-.763-1.546-1.144-2.724-1.144-1.124 0-2.247.561-3.37 1.684-.735-1.123-1.747-1.684-3.037-1.684-.43 0-.86.11-1.289.332-.416.222-.728.437-.936.645a4.659 4.659 0 00-.52.562v-1.207h-2.746v9.818h2.746v-6.614c.194-.36.457-.652.79-.874a2.012 2.012 0 011.102-.333c.541 0 .971.153 1.29.458.319.305.478.894.478 1.768v5.595h2.767z" fill="#fff"/><path fill-rule="evenodd" clip-rule="evenodd" d="M212.982 21.122c-1.345 0-2.496.471-3.453 1.414-.943.93-1.414 2.274-1.414 4.035 0 1.609.465 2.85 1.394 3.723.943.86 2.197 1.29 3.764 1.29.597 0 1.186-.097 1.768-.291.583-.194 1.02-.381 1.311-.562.305-.18.679-.43 1.123-.749l-.77-1.497c-1.123.693-2.073 1.04-2.849 1.04-1.983 0-2.995-.97-3.037-2.912h6.656c0-3.661-1.498-5.491-4.493-5.491zm-2.038 3.952c.36-1.415 1.081-2.122 2.163-2.122 1.206 0 1.851.707 1.934 2.122h-4.097z" fill="#fff"/><path d="M222.046 22.64v-1.186H219.3v9.818h2.746v-6.76c.263-.291.638-.54 1.123-.749.485-.222.915-.333 1.289-.333 1.359 0 2.039.819 2.039 2.455v5.387h2.745v-5.72c0-1.4-.36-2.482-1.081-3.245-.721-.762-1.671-1.144-2.85-1.144-1.192 0-2.281.492-3.265 1.477zm16.114 7.8l-.624-1.622c-.721.29-1.248.436-1.58.436-.555 0-.832-.388-.832-1.164v-4.701h2.932v-1.935h-2.932V18.71h-.541l-3.911 4.41v.27h1.685v5.033c0 2.025.881 3.037 2.642 3.037.86 0 1.913-.34 3.161-1.019zm9.025-.603c.263-.458.395-.992.395-1.602 0-.665-.194-1.22-.582-1.664a3.242 3.242 0 00-1.394-.998 15.327 15.327 0 00-1.664-.52 8.136 8.136 0 01-1.394-.479c-.374-.18-.561-.409-.561-.686 0-.555.374-.832 1.123-.832 1.054 0 2.232.236 3.536.707l.603-1.913a10.325 10.325 0 00-3.827-.75c-1.248 0-2.219.299-2.912.895-.693.596-1.04 1.345-1.04 2.247 0 .693.187 1.268.562 1.726.374.444.825.763 1.352.957.54.18 1.081.34 1.622.478.541.125.998.285 1.373.479.374.194.561.45.561.77 0 .706-.568 1.06-1.705 1.06-1.012 0-2.108-.388-3.287-1.165l-.894 1.685c1.29.901 2.746 1.352 4.368 1.352.485 0 .957-.062 1.414-.187a5.01 5.01 0 001.332-.52 2.73 2.73 0 001.019-1.04z" fill="#fff"/></svg>